M48
; DRILL file {KiCad 5.1.6} date Sat Jun 13 09:41:33 2020
; FORMAT={3:3/ absolute / metric / suppress leading zeros}
; #@! TF.CreationDate,2020-06-13T09:41:33+02:00
; #@! TF.GenerationSoftware,Kicad,Pcbnew,5.1.6
FMAT,2
METRIC,TZ
T1C0.400
T2C0.762
T3C1.000
%
G90
G05
T1
X184150Y-95250
X193040Y-95250
T2
X143510Y-76200
X148590Y-76200
X114300Y-77470
X121920Y-77470
X168910Y-76200
X173990Y-76200
X181610Y-90170
X181610Y-97790
X184150Y-90170
X184150Y-97790
X186690Y-90170
X186690Y-97790
X189230Y-90170
X189230Y-97790
X191770Y-90170
X191770Y-97790
X194310Y-90170
X194310Y-97790
X114300Y-91440
X121920Y-91440
X156210Y-76200
X161290Y-76200
X140970Y-90170
X140970Y-97790
X143510Y-90170
X143510Y-97790
X146050Y-90170
X146050Y-97790
X148590Y-90170
X148590Y-97790
X151130Y-90170
X151130Y-97790
X153670Y-90170
X153670Y-97790
X130810Y-76200
X135890Y-76200
X116840Y-62230
X116840Y-64770
X116840Y-67310
T3
X114300Y-97790
X116840Y-97790
X114300Y-104140
X116840Y-104140
X129540Y-60960
X129540Y-63500
X132080Y-60960
X132080Y-63500
X134620Y-60960
X134620Y-63500
X137160Y-60960
X137160Y-63500
X139700Y-60960
X139700Y-63500
X142240Y-60960
X142240Y-63500
X144780Y-60960
X144780Y-63500
X147320Y-60960
X147320Y-63500
X149860Y-60960
X149860Y-63500
X152400Y-60960
X152400Y-63500
X154940Y-60960
X154940Y-63500
X157480Y-60960
X157480Y-63500
X160020Y-60960
X160020Y-63500
X162560Y-60960
X162560Y-63500
X165100Y-60960
X165100Y-63500
X167640Y-60960
X167640Y-63500
X170180Y-60960
X170180Y-63500
X172720Y-60960
X172720Y-63500
X175260Y-60960
X175260Y-63500
X177800Y-60960
X177800Y-63500
X114300Y-85090
X116840Y-85090
T0
M30
